<svg id="Layer_1" data-name="Layer 1" xmlns="http://www.w3.org/2000/svg" viewBox="0 0 386 80"><defs><style>.cls-1{fill:#ef4751;}</style></defs><title>Bloxcar</title><path class="cls-1" d="M45.65,32.23A21.08,21.08,0,0,1,63.47,53c0,11-7,21-20.08,21H4V7.53H36.32A14.43,14.43,0,0,1,50.46,22C50.46,26.29,48.58,30.34,45.65,32.23Zm-22.9-1.79h5.94c3.3,0,4.81-1.51,4.81-3.59,0-1.88-1.13-3.58-4.62-3.58H22.75Zm9.52,27.8c8.2,0,10.93-2.64,10.93-7.35,0-3.4-2.92-7.07-10.83-7.07H22.85V58.24Z"/><path class="cls-1" d="M70.82,2.92H89.57V74H70.82Z"/><path class="cls-1" d="M153.57,48.34c0,14.7-12.63,26.58-28.18,26.58S97.21,63,97.21,48.34s12.63-26.67,28.18-26.67S153.57,33.55,153.57,48.34Zm-18.29,0c0-5.94-4.43-10.74-9.89-10.74s-9.9,4.8-9.9,10.74S119.92,59,125.39,59,135.28,54.18,135.28,48.34Z"/><path class="cls-1" d="M173.45,74H153.57L170.44,47.4,154,22.61h20.73l6.13,11.22,6.12-11.22h20.73L191.08,47.4,208,74h-20l-7.25-11.3Z"/><path class="cls-1" d="M260.16,50.13,275,62.19a35.54,35.54,0,0,1-27.51,12.73c-19.51,0-35.34-15.27-35.34-34.12S227.93,6.59,247.44,6.59A35.65,35.65,0,0,1,275,19.41L260.16,31.47a14.94,14.94,0,0,0-12.72-7.54c-8.39,0-15.46,6-15.46,16.87,0,10.56,7.07,16.87,15.46,16.87A14.94,14.94,0,0,0,260.16,50.13Z"/><path class="cls-1" d="M335.09,22.61V74H316.33V71.43a24.61,24.61,0,0,1-12,3.49c-16.77,0-24.88-13.48-24.88-26.67,0-13.39,8.11-26.67,24.88-26.67a28.83,28.83,0,0,1,12,3v-2Zm-18.76,18a13.7,13.7,0,0,0-8.48-3c-7.16,0-10.46,5.37-10.46,10.65S300.78,59,307.85,59a13.65,13.65,0,0,0,8.48-3Z"/><path class="cls-1" d="M363.08,27.33c3.86-3.4,8.95-5.38,15.55-5.75V41.27a30.87,30.87,0,0,0-4.81-.37c-9.14,0-10.74,5.18-10.74,9.33V74H344.33V22.61h18.75Z"/></svg>